<svg width="242" height="204" viewBox="0 0 242 204" fill="none" xmlns="http://www.w3.org/2000/svg">
<path d="M31.2358 203.337C19.8067 202.311 11.1544 197.102 5.27903 187.71C-0.596379 178.318 -1.56746 168.358 2.36578 157.831L30.6889 82.5515C24.8019 78.0179 20.1545 72.165 16.7468 64.9929C13.339 57.8207 12.0588 49.981 12.9061 41.4739C14.1599 28.9978 19.7096 18.719 29.5552 10.6376C39.4008 2.5562 50.6097 -0.920628 63.1816 0.20713L154.614 8.40901C163.186 9.17794 169.302 13.3505 172.961 20.9267C176.62 28.503 176.165 35.9008 171.595 43.1204L144.178 86.4376C141.703 90.0303 138.587 92.8026 134.831 94.7545C131.076 96.7064 127.011 97.4863 122.637 97.0939L99.4936 95.0178L95.2108 106.078L98.6395 106.385C101.878 106.676 104.485 108.008 106.46 110.383C108.436 112.757 109.259 115.547 108.929 118.753L106.649 141.436C106.326 144.65 104.958 147.247 102.545 149.228C100.132 151.209 97.3101 152.05 94.0802 151.753L78.651 150.369L66.8877 181.357C64.0515 188.542 59.3527 194.178 52.7914 198.266C46.2301 202.355 39.0449 204.045 31.2358 203.337ZM33.5154 180.653C36.1822 180.892 38.544 180.341 40.6008 178.999C42.6576 177.658 44.1905 175.793 45.1994 173.404L75.7783 92.8905L52.063 90.7631L23.7968 165.476C22.4835 168.982 22.8223 172.304 24.8133 175.443C26.8042 178.582 29.7049 180.319 33.5154 180.653ZM56.3427 68.2587L124.917 74.4101L152.335 31.0929L60.902 22.891C54.616 22.3271 49.0133 24.0676 44.0939 28.1124C39.1745 32.1572 36.398 37.2945 35.7642 43.5244C35.1304 49.7542 36.8337 55.2972 40.8739 60.1533C44.9142 65.0095 50.0704 67.7113 56.3427 68.2587ZM232.991 23.1646L206.107 32.4833C203.917 33.2405 201.771 33.0975 199.669 32.0545C197.568 31.0115 196.142 29.4035 195.392 27.2304C194.641 25.0574 194.759 22.9241 195.746 20.8306C196.733 18.7371 198.319 17.3039 200.503 16.5309L227.387 7.2122C229.577 6.455 231.772 6.60613 233.972 7.6656C236.172 8.72507 237.644 10.3334 238.388 12.4907C239.133 14.6479 238.968 16.7808 237.895 18.8895C236.822 20.9981 235.188 22.4232 232.991 23.1646ZM192.44 99.6361C190.439 98.503 189.077 96.7595 188.352 94.4057C187.628 92.0519 187.846 89.878 189.008 87.8841C190.188 85.7011 191.959 84.3341 194.321 83.783C196.683 83.232 198.959 83.5315 201.15 84.6817L225.669 98.8975C227.669 100.031 228.941 101.72 229.484 103.966C230.027 106.212 229.718 108.328 228.557 110.315C227.397 112.301 225.68 113.627 223.406 114.293C221.133 114.959 218.993 114.717 216.987 113.568L192.44 99.6361ZM232.061 69.7161L203.488 67.153C201.012 66.9309 199.047 65.9421 197.594 64.1866C196.14 62.4312 195.533 60.3282 195.771 57.8776C196.01 55.4271 197.025 53.4697 198.818 52.0054C200.61 50.5411 202.737 49.9194 205.198 50.1401L233.771 52.7032C236.247 52.9254 238.216 53.9145 239.677 55.6706C241.138 57.4268 241.741 59.5294 241.488 61.9786C241.234 64.4278 240.218 66.389 238.44 67.8622C236.662 69.3354 234.536 69.9534 232.061 69.7161Z" fill="#6B7280"/>
</svg>
