<svg width="260" height="224" viewBox="0 0 260 224" fill="none" xmlns="http://www.w3.org/2000/svg">
<path d="M55.9061 42.5243L75.9914 44.7546L62.6097 165.266L42.5244 163.036L55.9061 42.5243ZM86.034 45.8697L96.0766 46.9849L82.695 167.497L72.6523 166.381L86.034 45.8697ZM106.119 48.1L136.247 51.4454L122.866 171.957L92.7376 168.612L106.119 48.1ZM146.29 52.5606L156.333 53.6757L142.951 174.187L132.908 173.072L146.29 52.5606ZM176.418 55.906L196.503 58.1363L183.121 178.648L163.036 176.418L176.418 55.906ZM206.546 59.2514L216.588 60.3665L203.207 180.878L193.164 179.763L206.546 59.2514ZM38.0511 20.2088L33.5905 60.3793L13.5052 58.149L17.9658 17.9785C18.5573 12.6515 21.2407 7.77773 25.4257 4.42927C29.6106 1.0808 34.9544 -0.468041 40.2813 0.123465L80.4519 4.58402L78.2216 24.6693L38.0511 20.2088ZM241.134 22.4262C246.461 23.0177 251.335 25.7011 254.683 29.8861C258.032 34.0711 259.581 39.4148 258.989 44.7418L254.529 84.9124L234.443 82.6821L238.904 42.5115L198.733 38.051L200.964 17.9657L241.134 22.4262ZM24.6694 140.72L20.2088 180.891L60.3794 185.352L58.1491 205.437L17.9786 200.976C12.6516 200.385 7.77782 197.701 4.42935 193.516C1.08089 189.331 -0.467952 183.988 0.123555 178.661L4.58411 138.49L24.6694 140.72ZM221.062 203.194L225.522 163.023L245.608 165.254L241.147 205.424C240.556 210.751 237.872 215.625 233.687 218.973C229.502 222.322 224.158 223.871 218.831 223.279L178.661 218.819L180.891 198.733L221.062 203.194Z" fill="#6B7280"/>
</svg>
