<svg width="65" height="53" viewBox="0 0 65 53" fill="none" xmlns="http://www.w3.org/2000/svg">
<path d="M14.7222 50.0556C14.7222 50.8898 14.4396 51.5896 13.8742 52.1549C13.3089 52.7203 12.6101 53.002 11.7778 53H2.94444C2.11019 53 1.41137 52.7173 0.848 52.152C0.28463 51.5867 0.00196296 50.8878 0 50.0556L0 41.2222C0 40.388 0.282667 39.6891 0.848 39.1258C1.41333 38.5624 2.11215 38.2797 2.94444 38.2778C3.77674 38.2758 4.47654 38.5585 5.04383 39.1258C5.61113 39.6931 5.89281 40.3919 5.88889 41.2222V47.1111H11.7778C12.612 47.1111 13.3118 47.3938 13.8772 47.9591C14.4425 48.5244 14.7242 49.2233 14.7222 50.0556ZM61.8333 38.2778C62.6676 38.2778 63.3674 38.5604 63.9327 39.1258C64.4981 39.6911 64.7797 40.3899 64.7778 41.2222V50.0556C64.7778 50.8898 64.4951 51.5896 63.9298 52.1549C63.3644 52.7203 62.6656 53.002 61.8333 53H53C52.1657 53 51.4669 52.7173 50.9036 52.152C50.3402 51.5867 50.0575 50.8878 50.0556 50.0556C50.0536 49.2233 50.3363 48.5244 50.9036 47.9591C51.4709 47.3938 52.1697 47.1111 53 47.1111H58.8889V41.2222C58.8889 40.388 59.1716 39.6891 59.7369 39.1258C60.3022 38.5624 61.001 38.2797 61.8333 38.2778ZM10.3056 44.1667C9.91296 44.1667 9.56945 44.0194 9.275 43.725C8.98056 43.4306 8.83333 43.087 8.83333 42.6944V10.3056C8.83333 9.91296 8.98056 9.56945 9.275 9.275C9.56945 8.98056 9.91296 8.83333 10.3056 8.83333H13.25C13.6426 8.83333 13.9861 8.98056 14.2806 9.275C14.575 9.56945 14.7222 9.91296 14.7222 10.3056V42.6944C14.7222 43.087 14.575 43.4306 14.2806 43.725C13.9861 44.0194 13.6426 44.1667 13.25 44.1667H10.3056ZM19.1389 44.1667C18.7463 44.1667 18.4028 44.0194 18.1083 43.725C17.8139 43.4306 17.6667 43.087 17.6667 42.6944V10.3056C17.6667 9.91296 17.8139 9.56945 18.1083 9.275C18.4028 8.98056 18.7463 8.83333 19.1389 8.83333C19.5315 8.83333 19.875 8.98056 20.1694 9.275C20.4639 9.56945 20.6111 9.91296 20.6111 10.3056V42.6944C20.6111 43.087 20.4639 43.4306 20.1694 43.725C19.875 44.0194 19.5315 44.1667 19.1389 44.1667ZM27.9722 44.1667C27.5796 44.1667 27.2361 44.0194 26.9417 43.725C26.6472 43.4306 26.5 43.087 26.5 42.6944V10.3056C26.5 9.91296 26.6472 9.56945 26.9417 9.275C27.2361 8.98056 27.5796 8.83333 27.9722 8.83333H30.9167C31.3093 8.83333 31.6528 8.98056 31.9472 9.275C32.2417 9.56945 32.3889 9.91296 32.3889 10.3056V42.6944C32.3889 43.087 32.2417 43.4306 31.9472 43.725C31.6528 44.0194 31.3093 44.1667 30.9167 44.1667H27.9722ZM36.8056 44.1667C36.413 44.1667 36.0694 44.0194 35.775 43.725C35.4806 43.4306 35.3333 43.087 35.3333 42.6944V10.3056C35.3333 9.91296 35.4806 9.56945 35.775 9.275C36.0694 8.98056 36.413 8.83333 36.8056 8.83333H42.6944C43.087 8.83333 43.4306 8.98056 43.725 9.275C44.0194 9.56945 44.1667 9.91296 44.1667 10.3056V42.6944C44.1667 43.087 44.0194 43.4306 43.725 43.725C43.4306 44.0194 43.087 44.1667 42.6944 44.1667H36.8056ZM48.5833 44.1667C48.1907 44.1667 47.8472 44.0194 47.5528 43.725C47.2583 43.4306 47.1111 43.087 47.1111 42.6944V10.3056C47.1111 9.91296 47.2583 9.56945 47.5528 9.275C47.8472 8.98056 48.1907 8.83333 48.5833 8.83333C48.9759 8.83333 49.3194 8.98056 49.6139 9.275C49.9083 9.56945 50.0556 9.91296 50.0556 10.3056V42.6944C50.0556 43.087 49.9083 43.4306 49.6139 43.725C49.3194 44.0194 48.9759 44.1667 48.5833 44.1667ZM54.4722 44.1667C54.0796 44.1667 53.7361 44.0194 53.4417 43.725C53.1472 43.4306 53 43.087 53 42.6944V10.3056C53 9.91296 53.1472 9.56945 53.4417 9.275C53.7361 8.98056 54.0796 8.83333 54.4722 8.83333C54.8648 8.83333 55.2083 8.98056 55.5028 9.275C55.7972 9.56945 55.9444 9.91296 55.9444 10.3056V42.6944C55.9444 43.087 55.7972 43.4306 55.5028 43.725C55.2083 44.0194 54.8648 44.1667 54.4722 44.1667ZM14.7222 2.94444C14.7222 3.7787 14.4396 4.4785 13.8742 5.04383C13.3089 5.60917 12.6101 5.89085 11.7778 5.88889H5.88889V11.7778C5.88889 12.612 5.60622 13.3118 5.04089 13.8772C4.47556 14.4425 3.77674 14.7242 2.94444 14.7222C2.11215 14.7203 1.41333 14.4376 0.848 13.8742C0.282667 13.3109 0 12.612 0 11.7778L0 2.94444C0 2.11019 0.282667 1.41137 0.848 0.848C1.41333 0.28463 2.11215 0.00196296 2.94444 0L11.7778 0C12.612 0 13.3118 0.282667 13.8772 0.848C14.4425 1.41333 14.7242 2.11215 14.7222 2.94444ZM50.0556 2.94444C50.0556 2.11019 50.3382 1.41137 50.9036 0.848C51.4689 0.28463 52.1677 0.00196296 53 0L61.8333 0C62.6676 0 63.3674 0.282667 63.9327 0.848C64.4981 1.41333 64.7797 2.11215 64.7778 2.94444V11.7778C64.7778 12.612 64.4951 13.3118 63.9298 13.8772C63.3644 14.4425 62.6656 14.7242 61.8333 14.7222C61.001 14.7203 60.3022 14.4376 59.7369 13.8742C59.1716 13.3109 58.8889 12.612 58.8889 11.7778V5.88889H53C52.1657 5.88889 51.4669 5.60622 50.9036 5.04089C50.3402 4.47556 50.0575 3.77674 50.0556 2.94444Z" fill="#5398E1"/>
</svg>
