<svg width="78" height="48" viewBox="0 0 78 48" fill="none" xmlns="http://www.w3.org/2000/svg">
<path d="M73.2891 0L3.72656 0C2.73822 0 1.79035 0.392618 1.09148 1.09148C0.392619 1.79035 0 2.73822 0 3.72656L0 43.4766C0 44.4649 0.392619 45.4128 1.09148 46.1116C1.79035 46.8105 2.73822 47.2031 3.72656 47.2031L73.2891 47.2031C74.2774 47.2031 75.2253 46.8105 75.9241 46.1116C76.623 45.4128 77.0156 44.4649 77.0156 43.4766V3.72656C77.0156 2.73822 76.623 1.79035 75.9241 1.09148C75.2253 0.392618 74.2774 0 73.2891 0ZM55.032 39.75H21.9836C21.2463 36.1732 19.4771 32.8908 16.8947 30.3084C14.3123 27.726 11.0299 25.9569 7.45312 25.2195V21.9836C11.0299 21.2463 14.3123 19.4771 16.8947 16.8947C19.4771 14.3123 21.2463 11.0299 21.9836 7.45313L55.032 7.45313C55.7694 11.0299 57.5385 14.3123 60.1209 16.8947C62.7033 19.4771 65.9857 21.2463 69.5625 21.9836V25.2195C65.9857 25.9569 62.7033 27.726 60.1209 30.3084C57.5385 32.8908 55.7694 36.1732 55.032 39.75ZM69.5625 14.2665C67.9931 13.7063 66.5678 12.8044 65.3895 11.6261C64.2112 10.4478 63.3094 9.02249 62.7491 7.45313L69.5625 7.45313V14.2665ZM14.2665 7.45313C13.7063 9.02249 12.8044 10.4478 11.6261 11.6261C10.4478 12.8044 9.02249 13.7063 7.45312 14.2665V7.45313H14.2665ZM7.45312 32.9366C9.02249 33.4969 10.4478 34.3987 11.6261 35.577C12.8044 36.7553 13.7063 38.1806 14.2665 39.75H7.45312L7.45312 32.9366ZM62.7491 39.75C63.3094 38.1806 64.2112 36.7553 65.3895 35.577C66.5678 34.3987 67.9931 33.4969 69.5625 32.9366V39.75H62.7491ZM38.5078 11.1797C36.051 11.1797 33.6494 11.9082 31.6066 13.2732C29.5638 14.6381 27.9717 16.5781 27.0315 18.8479C26.0913 21.1177 25.8453 23.6153 26.3246 26.025C26.8039 28.4346 27.987 30.6479 29.7242 32.3852C31.4615 34.1224 33.6748 35.3055 36.0844 35.7848C38.494 36.2641 40.9917 36.0181 43.2615 35.0779C45.5313 34.1377 47.4713 32.5456 48.8362 30.5028C50.2012 28.46 50.9297 26.0584 50.9297 23.6016C50.9297 20.3071 49.621 17.1475 47.2914 14.818C44.9619 12.4884 41.8023 11.1797 38.5078 11.1797ZM38.5078 28.5703C37.5251 28.5703 36.5644 28.2789 35.7473 27.7329C34.9302 27.187 34.2934 26.4109 33.9173 25.503C33.5412 24.5951 33.4428 23.5961 33.6345 22.6322C33.8263 21.6684 34.2995 20.783 34.9944 20.0881C35.6893 19.3932 36.5746 18.92 37.5385 18.7283C38.5023 18.5366 39.5014 18.635 40.4093 19.011C41.3172 19.3871 42.0932 20.024 42.6392 20.8411C43.1851 21.6582 43.4766 22.6188 43.4766 23.6016C43.4766 24.9194 42.9531 26.1832 42.0212 27.115C41.0894 28.0468 39.8256 28.5703 38.5078 28.5703Z" fill="#5398E1"/>
</svg>
