<svg width="12" height="22" viewBox="0 0 12 22" fill="none" xmlns="http://www.w3.org/2000/svg">
<path d="M0.293178 1.70804C0.200268 1.61513 0.126568 1.50483 0.0762854 1.38344C0.0260029 1.26204 0.000121117 1.13194 0.000121117 1.00054C0.000121117 0.869146 0.0260029 0.739038 0.0762854 0.617645C0.126568 0.496252 0.200268 0.385952 0.293178 0.293041C0.386087 0.20013 0.496388 0.126432 0.617782 0.076149C0.739175 0.0258656 0.869283 -1.52588e-05 1.00068 -1.52588e-05C1.13207 -1.52588e-05 1.26218 0.0258656 1.38357 0.076149C1.50497 0.126432 1.61527 0.20013 1.70818 0.293041L11.7082 10.293C11.8012 10.3859 11.8749 10.4962 11.9252 10.6176C11.9756 10.739 12.0015 10.8691 12.0015 11.0005C12.0015 11.132 11.9756 11.2621 11.9252 11.3835C11.8749 11.5049 11.8012 11.6152 11.7082 11.708L1.70818 21.708C1.52054 21.8957 1.26604 22.0011 1.00068 22.0011C0.735314 22.0011 0.480818 21.8957 0.293178 21.708C0.105537 21.5204 0.000121117 21.2659 0.000121117 21.0005C0.000121117 20.7352 0.105537 20.4807 0.293178 20.293L9.58693 11.0005L0.293178 1.70804Z" fill="#E2E2E2"/>
</svg>
