<svg width="43" height="43" viewBox="0 0 43 43" fill="none" xmlns="http://www.w3.org/2000/svg">
<path fill-rule="evenodd" clip-rule="evenodd" d="M25.942 6.01375C26.9053 6.31125 27.8262 6.69375 28.7045 7.16125L32.5996 4.82375C33.0058 4.58014 33.4817 4.4792 33.9518 4.53695C34.4218 4.5947 34.8591 4.80783 35.1943 5.1425L37.3575 7.30575C37.6922 7.64086 37.9053 8.07818 37.963 8.54825C38.0208 9.01833 37.9199 9.49422 37.6763 9.90037L35.3387 13.7955C35.8062 14.6738 36.1888 15.5947 36.4863 16.558L40.8914 17.6609C41.3509 17.776 41.7588 18.0414 42.0502 18.4148C42.3417 18.7883 42.5 19.2484 42.5 19.7221V22.7779C42.5 23.2516 42.3417 23.7117 42.0502 24.0852C41.7588 24.4586 41.3509 24.724 40.8914 24.8391L36.4863 25.942C36.1888 26.9053 35.8062 27.8262 35.3387 28.7045L37.6763 32.5996C37.9199 33.0058 38.0208 33.4817 37.963 33.9518C37.9053 34.4218 37.6922 34.8591 37.3575 35.1943L35.1943 37.3575C34.8591 37.6922 34.4218 37.9053 33.9518 37.963C33.4817 38.0208 33.0058 37.9199 32.5996 37.6763L28.7045 35.3387C27.8262 35.8062 26.9053 36.1888 25.942 36.4863L24.8391 40.8914C24.724 41.3509 24.4586 41.7588 24.0852 42.0502C23.7117 42.3417 23.2516 42.5 22.7779 42.5H19.7221C19.2484 42.5 18.7883 42.3417 18.4148 42.0502C18.0414 41.7588 17.776 41.3509 17.6609 40.8914L16.558 36.4863C15.6032 36.1912 14.6783 35.807 13.7955 35.3387L9.90037 37.6763C9.49422 37.9199 9.01833 38.0208 8.54825 37.963C8.07818 37.9053 7.64086 37.6922 7.30575 37.3575L5.1425 35.1943C4.80783 34.8591 4.5947 34.4218 4.53695 33.9518C4.4792 33.4817 4.58014 33.0058 4.82375 32.5996L7.16125 28.7045C6.69299 27.8217 6.3088 26.8968 6.01375 25.942L1.60862 24.8391C1.14945 24.7241 0.741834 24.4591 0.450421 24.086C0.159007 23.713 0.000485866 23.2534 0 22.78V19.7242C1.24534e-05 19.2505 0.158317 18.7904 0.449768 18.4169C0.741218 18.0435 1.1491 17.7781 1.60862 17.663L6.01375 16.5601C6.31125 15.5968 6.69375 14.676 7.16125 13.7976L4.82375 9.9025C4.58014 9.49634 4.4792 9.02045 4.53695 8.55037C4.5947 8.0803 4.80783 7.64299 5.1425 7.30788L7.30575 5.1425C7.64086 4.80783 8.07818 4.5947 8.54825 4.53695C9.01833 4.4792 9.49422 4.58014 9.90037 4.82375L13.7955 7.16125C14.6738 6.69375 15.5947 6.31125 16.558 6.01375L17.6609 1.60862C17.7759 1.14945 18.0409 0.741834 18.414 0.450421C18.787 0.159007 19.2466 0.000485866 19.72 0H22.7758C23.2495 1.24534e-05 23.7096 0.158317 24.0831 0.449768C24.4565 0.741218 24.7219 1.1491 24.837 1.60862L25.942 6.01375ZM21.25 29.75C23.5043 29.75 25.6663 28.8545 27.2604 27.2604C28.8545 25.6663 29.75 23.5043 29.75 21.25C29.75 18.9957 28.8545 16.8337 27.2604 15.2396C25.6663 13.6455 23.5043 12.75 21.25 12.75C18.9957 12.75 16.8337 13.6455 15.2396 15.2396C13.6455 16.8337 12.75 18.9957 12.75 21.25C12.75 23.5043 13.6455 25.6663 15.2396 27.2604C16.8337 28.8545 18.9957 29.75 21.25 29.75Z" fill="#5398E1"/>
</svg>
